<svg xmlns="http://www.w3.org/2000/svg" xmlns:xlink="http://www.w3.org/1999/xlink" width="141px" height="141px">
<path fill-rule="evenodd" fill="rgb(0, 0, 0)" d="M140.000,1.000 L140.000,0.000 L141.000,0.000 L141.000,1.000 L140.000,1.000 ZM139.000,2.000 L139.000,1.000 L140.000,1.000 L140.000,2.000 L139.000,2.000 ZM138.000,3.000 L138.000,2.000 L139.000,2.000 L139.000,3.000 L138.000,3.000 ZM137.000,4.000 L137.000,3.000 L138.000,3.000 L138.000,4.000 L137.000,4.000 ZM136.000,5.000 L136.000,4.000 L137.000,4.000 L137.000,5.000 L136.000,5.000 ZM135.000,6.000 L135.000,5.000 L136.000,5.000 L136.000,6.000 L135.000,6.000 ZM134.000,7.000 L134.000,6.000 L135.000,6.000 L135.000,7.000 L134.000,7.000 ZM133.000,8.000 L133.000,7.000 L134.000,7.000 L134.000,8.000 L133.000,8.000 ZM132.000,9.000 L132.000,8.000 L133.000,8.000 L133.000,9.000 L132.000,9.000 ZM131.000,10.000 L131.000,9.000 L132.000,9.000 L132.000,10.000 L131.000,10.000 ZM130.000,11.000 L130.000,10.000 L131.000,10.000 L131.000,11.000 L130.000,11.000 ZM129.000,12.000 L129.000,11.000 L130.000,11.000 L130.000,12.000 L129.000,12.000 ZM128.000,13.000 L128.000,12.000 L129.000,12.000 L129.000,13.000 L128.000,13.000 ZM127.000,14.000 L127.000,13.000 L128.000,13.000 L128.000,14.000 L127.000,14.000 ZM126.000,15.000 L126.000,14.000 L127.000,14.000 L127.000,15.000 L126.000,15.000 ZM125.000,16.000 L125.000,15.000 L126.000,15.000 L126.000,16.000 L125.000,16.000 ZM124.000,17.000 L124.000,16.000 L125.000,16.000 L125.000,17.000 L124.000,17.000 ZM123.000,18.000 L123.000,17.000 L124.000,17.000 L124.000,18.000 L123.000,18.000 ZM122.000,19.000 L122.000,18.000 L123.000,18.000 L123.000,19.000 L122.000,19.000 ZM121.000,20.000 L121.000,19.000 L122.000,19.000 L122.000,20.000 L121.000,20.000 ZM120.000,21.000 L120.000,20.000 L121.000,20.000 L121.000,21.000 L120.000,21.000 ZM119.000,22.000 L119.000,21.000 L120.000,21.000 L120.000,22.000 L119.000,22.000 ZM118.000,23.000 L118.000,22.000 L119.000,22.000 L119.000,23.000 L118.000,23.000 ZM117.000,24.000 L117.000,23.000 L118.000,23.000 L118.000,24.000 L117.000,24.000 ZM116.000,25.000 L116.000,24.000 L117.000,24.000 L117.000,25.000 L116.000,25.000 ZM115.000,26.000 L115.000,25.000 L116.000,25.000 L116.000,26.000 L115.000,26.000 ZM114.000,27.000 L114.000,26.000 L115.000,26.000 L115.000,27.000 L114.000,27.000 ZM113.000,28.000 L113.000,27.000 L114.000,27.000 L114.000,28.000 L113.000,28.000 ZM112.000,29.000 L112.000,28.000 L113.000,28.000 L113.000,29.000 L112.000,29.000 ZM111.000,30.000 L111.000,29.000 L112.000,29.000 L112.000,30.000 L111.000,30.000 ZM110.000,31.000 L110.000,30.000 L111.000,30.000 L111.000,31.000 L110.000,31.000 ZM109.000,32.000 L109.000,31.000 L110.000,31.000 L110.000,32.000 L109.000,32.000 ZM108.000,33.000 L108.000,32.000 L109.000,32.000 L109.000,33.000 L108.000,33.000 ZM107.000,34.000 L107.000,33.000 L108.000,33.000 L108.000,34.000 L107.000,34.000 ZM106.000,35.000 L106.000,34.000 L107.000,34.000 L107.000,35.000 L106.000,35.000 ZM105.000,36.000 L105.000,35.000 L106.000,35.000 L106.000,36.000 L105.000,36.000 ZM104.000,37.000 L104.000,36.000 L105.000,36.000 L105.000,37.000 L104.000,37.000 ZM103.000,38.000 L103.000,37.000 L104.000,37.000 L104.000,38.000 L103.000,38.000 ZM102.000,39.000 L102.000,38.000 L103.000,38.000 L103.000,39.000 L102.000,39.000 ZM101.000,40.000 L101.000,39.000 L102.000,39.000 L102.000,40.000 L101.000,40.000 ZM100.000,41.000 L100.000,40.000 L101.000,40.000 L101.000,41.000 L100.000,41.000 ZM99.000,42.000 L99.000,41.000 L100.000,41.000 L100.000,42.000 L99.000,42.000 ZM98.000,43.000 L98.000,42.000 L99.000,42.000 L99.000,43.000 L98.000,43.000 ZM97.000,44.000 L97.000,43.000 L98.000,43.000 L98.000,44.000 L97.000,44.000 ZM96.000,45.000 L96.000,44.000 L97.000,44.000 L97.000,45.000 L96.000,45.000 ZM95.000,46.000 L95.000,45.000 L96.000,45.000 L96.000,46.000 L95.000,46.000 ZM94.000,47.000 L94.000,46.000 L95.000,46.000 L95.000,47.000 L94.000,47.000 ZM93.000,48.000 L93.000,47.000 L94.000,47.000 L94.000,48.000 L93.000,48.000 ZM92.000,49.000 L92.000,48.000 L93.000,48.000 L93.000,49.000 L92.000,49.000 ZM91.000,50.000 L91.000,49.000 L92.000,49.000 L92.000,50.000 L91.000,50.000 ZM90.000,51.000 L90.000,50.000 L91.000,50.000 L91.000,51.000 L90.000,51.000 ZM89.000,52.000 L89.000,51.000 L90.000,51.000 L90.000,52.000 L89.000,52.000 ZM88.000,53.000 L88.000,52.000 L89.000,52.000 L89.000,53.000 L88.000,53.000 ZM87.000,54.000 L87.000,53.000 L88.000,53.000 L88.000,54.000 L87.000,54.000 ZM86.000,55.000 L86.000,54.000 L87.000,54.000 L87.000,55.000 L86.000,55.000 ZM85.000,56.000 L85.000,55.000 L86.000,55.000 L86.000,56.000 L85.000,56.000 ZM84.000,57.000 L84.000,56.000 L85.000,56.000 L85.000,57.000 L84.000,57.000 ZM83.000,58.000 L83.000,57.000 L84.000,57.000 L84.000,58.000 L83.000,58.000 ZM82.000,59.000 L82.000,58.000 L83.000,58.000 L83.000,59.000 L82.000,59.000 ZM81.000,60.000 L81.000,59.000 L82.000,59.000 L82.000,60.000 L81.000,60.000 ZM80.000,61.000 L80.000,60.000 L81.000,60.000 L81.000,61.000 L80.000,61.000 ZM79.000,62.000 L79.000,61.000 L80.000,61.000 L80.000,62.000 L79.000,62.000 ZM78.000,63.000 L78.000,62.000 L79.000,62.000 L79.000,63.000 L78.000,63.000 ZM77.000,64.000 L77.000,63.000 L78.000,63.000 L78.000,64.000 L77.000,64.000 ZM76.000,65.000 L76.000,64.000 L77.000,64.000 L77.000,65.000 L76.000,65.000 ZM75.000,66.000 L75.000,65.000 L76.000,65.000 L76.000,66.000 L75.000,66.000 ZM74.000,67.000 L74.000,66.000 L75.000,66.000 L75.000,67.000 L74.000,67.000 ZM73.000,68.000 L73.000,67.000 L74.000,67.000 L74.000,68.000 L73.000,68.000 ZM72.000,69.000 L72.000,68.000 L73.000,68.000 L73.000,69.000 L72.000,69.000 ZM71.000,70.000 L71.000,69.000 L72.000,69.000 L72.000,70.000 L71.000,70.000 ZM70.000,71.000 L70.000,70.000 L71.000,70.000 L71.000,71.000 L70.000,71.000 ZM69.000,72.000 L69.000,71.000 L70.000,71.000 L70.000,72.000 L69.000,72.000 ZM68.000,73.000 L68.000,72.000 L69.000,72.000 L69.000,73.000 L68.000,73.000 ZM67.000,74.000 L67.000,73.000 L68.000,73.000 L68.000,74.000 L67.000,74.000 ZM66.000,75.000 L66.000,74.000 L67.000,74.000 L67.000,75.000 L66.000,75.000 ZM65.000,76.000 L65.000,75.000 L66.000,75.000 L66.000,76.000 L65.000,76.000 ZM64.000,77.000 L64.000,76.000 L65.000,76.000 L65.000,77.000 L64.000,77.000 ZM63.000,78.000 L63.000,77.000 L64.000,77.000 L64.000,78.000 L63.000,78.000 ZM62.000,79.000 L62.000,78.000 L63.000,78.000 L63.000,79.000 L62.000,79.000 ZM61.000,80.000 L61.000,79.000 L62.000,79.000 L62.000,80.000 L61.000,80.000 ZM60.000,81.000 L60.000,80.000 L61.000,80.000 L61.000,81.000 L60.000,81.000 ZM59.000,82.000 L59.000,81.000 L60.000,81.000 L60.000,82.000 L59.000,82.000 ZM58.000,83.000 L58.000,82.000 L59.000,82.000 L59.000,83.000 L58.000,83.000 ZM57.000,84.000 L57.000,83.000 L58.000,83.000 L58.000,84.000 L57.000,84.000 ZM56.000,85.000 L56.000,84.000 L57.000,84.000 L57.000,85.000 L56.000,85.000 ZM55.000,86.000 L55.000,85.000 L56.000,85.000 L56.000,86.000 L55.000,86.000 ZM54.000,87.000 L54.000,86.000 L55.000,86.000 L55.000,87.000 L54.000,87.000 ZM53.000,88.000 L53.000,87.000 L54.000,87.000 L54.000,88.000 L53.000,88.000 ZM52.000,89.000 L52.000,88.000 L53.000,88.000 L53.000,89.000 L52.000,89.000 ZM51.000,90.000 L51.000,89.000 L52.000,89.000 L52.000,90.000 L51.000,90.000 ZM50.000,91.000 L50.000,90.000 L51.000,90.000 L51.000,91.000 L50.000,91.000 ZM49.000,92.000 L49.000,91.000 L50.000,91.000 L50.000,92.000 L49.000,92.000 ZM48.000,93.000 L48.000,92.000 L49.000,92.000 L49.000,93.000 L48.000,93.000 ZM47.000,94.000 L47.000,93.000 L48.000,93.000 L48.000,94.000 L47.000,94.000 ZM46.000,95.000 L46.000,94.000 L47.000,94.000 L47.000,95.000 L46.000,95.000 ZM45.000,96.000 L45.000,95.000 L46.000,95.000 L46.000,96.000 L45.000,96.000 ZM44.000,97.000 L44.000,96.000 L45.000,96.000 L45.000,97.000 L44.000,97.000 ZM43.000,98.000 L43.000,97.000 L44.000,97.000 L44.000,98.000 L43.000,98.000 ZM42.000,99.000 L42.000,98.000 L43.000,98.000 L43.000,99.000 L42.000,99.000 ZM41.000,100.000 L41.000,99.000 L42.000,99.000 L42.000,100.000 L41.000,100.000 ZM40.000,101.000 L40.000,100.000 L41.000,100.000 L41.000,101.000 L40.000,101.000 ZM39.000,102.000 L39.000,101.000 L40.000,101.000 L40.000,102.000 L39.000,102.000 ZM38.000,103.000 L38.000,102.000 L39.000,102.000 L39.000,103.000 L38.000,103.000 ZM37.000,104.000 L37.000,103.000 L38.000,103.000 L38.000,104.000 L37.000,104.000 ZM36.000,105.000 L36.000,104.000 L37.000,104.000 L37.000,105.000 L36.000,105.000 ZM35.000,106.000 L35.000,105.000 L36.000,105.000 L36.000,106.000 L35.000,106.000 ZM34.000,107.000 L34.000,106.000 L35.000,106.000 L35.000,107.000 L34.000,107.000 ZM33.000,108.000 L33.000,107.000 L34.000,107.000 L34.000,108.000 L33.000,108.000 ZM32.000,109.000 L32.000,108.000 L33.000,108.000 L33.000,109.000 L32.000,109.000 ZM31.000,110.000 L31.000,109.000 L32.000,109.000 L32.000,110.000 L31.000,110.000 ZM30.000,111.000 L30.000,110.000 L31.000,110.000 L31.000,111.000 L30.000,111.000 ZM29.000,112.000 L29.000,111.000 L30.000,111.000 L30.000,112.000 L29.000,112.000 ZM28.000,113.000 L28.000,112.000 L29.000,112.000 L29.000,113.000 L28.000,113.000 ZM27.000,114.000 L27.000,113.000 L28.000,113.000 L28.000,114.000 L27.000,114.000 ZM26.000,115.000 L26.000,114.000 L27.000,114.000 L27.000,115.000 L26.000,115.000 ZM25.000,116.000 L25.000,115.000 L26.000,115.000 L26.000,116.000 L25.000,116.000 ZM24.000,117.000 L24.000,116.000 L25.000,116.000 L25.000,117.000 L24.000,117.000 ZM23.000,118.000 L23.000,117.000 L24.000,117.000 L24.000,118.000 L23.000,118.000 ZM22.000,119.000 L22.000,118.000 L23.000,118.000 L23.000,119.000 L22.000,119.000 ZM21.000,120.000 L21.000,119.000 L22.000,119.000 L22.000,120.000 L21.000,120.000 ZM20.000,121.000 L20.000,120.000 L21.000,120.000 L21.000,121.000 L20.000,121.000 ZM19.000,122.000 L19.000,121.000 L20.000,121.000 L20.000,122.000 L19.000,122.000 ZM18.000,123.000 L18.000,122.000 L19.000,122.000 L19.000,123.000 L18.000,123.000 ZM17.000,124.000 L17.000,123.000 L18.000,123.000 L18.000,124.000 L17.000,124.000 ZM16.000,125.000 L16.000,124.000 L17.000,124.000 L17.000,125.000 L16.000,125.000 ZM15.000,126.000 L15.000,125.000 L16.000,125.000 L16.000,126.000 L15.000,126.000 ZM14.000,127.000 L14.000,126.000 L15.000,126.000 L15.000,127.000 L14.000,127.000 ZM13.000,128.000 L13.000,127.000 L14.000,127.000 L14.000,128.000 L13.000,128.000 ZM12.000,129.000 L12.000,128.000 L13.000,128.000 L13.000,129.000 L12.000,129.000 ZM11.000,130.000 L11.000,129.000 L12.000,129.000 L12.000,130.000 L11.000,130.000 ZM10.000,131.000 L10.000,130.000 L11.000,130.000 L11.000,131.000 L10.000,131.000 ZM9.000,132.000 L9.000,131.000 L10.000,131.000 L10.000,132.000 L9.000,132.000 ZM8.000,133.000 L8.000,132.000 L9.000,132.000 L9.000,133.000 L8.000,133.000 ZM7.000,134.000 L7.000,133.000 L8.000,133.000 L8.000,134.000 L7.000,134.000 ZM6.000,135.000 L6.000,134.000 L7.000,134.000 L7.000,135.000 L6.000,135.000 ZM5.000,136.000 L5.000,135.000 L6.000,135.000 L6.000,136.000 L5.000,136.000 ZM4.000,137.000 L4.000,136.000 L5.000,136.000 L5.000,137.000 L4.000,137.000 ZM3.000,138.000 L3.000,137.000 L4.000,137.000 L4.000,138.000 L3.000,138.000 ZM2.000,139.000 L2.000,138.000 L3.000,138.000 L3.000,139.000 L2.000,139.000 ZM1.000,140.000 L1.000,139.000 L2.000,139.000 L2.000,140.000 L1.000,140.000 ZM0.000,141.000 L0.000,140.000 L1.000,140.000 L1.000,141.000 L0.000,141.000 Z"/>
</svg>